PathFileType	4	(X/Y/Z)	C:/Users/beibeiliu/ov580/test_trc/User3\sequence.34_training_dense_left.trc
DataRate	CameraRate	NumFrames	NumMarkers	Units	OrigDataRate	OrigDataStartFrame	OrigNumFrames
120	120	17	19	mm	120	26	126
Frame#	Time	ThumbCMC			ThumbMCP			ThumbIP			ThumbTip			IndexMCP			IndexPIP			IndexTip			MiddleMCP			MiddlePIP			MiddleTip			RingMCP			RingPIP			RingTip			PinkyMCP			PinkyPIP			PinkyTip			BackHand1			BackHand2			BackHand3	
		X0	Y0	Z0	X1	Y1	Z1	X2	Y2	Z2	X3	Y3	Z3	X4	Y4	Z4	X5	Y5	Z5	X6	Y6	Z6	X7	Y7	Z7	X8	Y8	Z8	X9	Y9	Z9	X10	Y10	Z10	X11	Y11	Z11	X12	Y12	Z12	X13	Y13	Z13	X14	Y14	Z14	X15	Y15	Z15	X16	Y16	Z16	X17	Y17	Z17	X18	Y18	Z18	
25	0.208333	-176.186	-23.5354	23.3196	-188.66	-23.1194	-5.5332	-193.519	-24.9384	-36.4198	-199.103	-22.5334	-55.0521	-137.847	-26.1641	-50.4808	-131.633	-4.37509	-67.2722	-124.119	18.7012	-77.405	-118.067	-32.0067	-48.4653	-110.978	-11.5392	-67.8888	-99.3584	16.7179	-81.3745	-99.0455	-42.313	-34.1678	-88.2074	-35.2752	-56.12	-74.928	-25.7432	-77.435	-90.1329	-47.8549	-10.6888	-75.3735	-52.5246	-24.601	-61.559	-57.4917	-40.6731	-121.923	-57.4117	19.7253	-132.644	-57.2079	42.775	-155.663	-51.4243	20.3816	
26	0.216667	-178.632	-24.394	19.9867	-186.743	-24.0574	-7.85935	-188.431	-25.1597	-35.5957	-192.223	-22.8175	-56.6239	-142.442	-26.5035	-48.4602	-129.562	-7.29319	-64.7658	-122.742	15.2405	-74.8697	-114.258	-32.0252	-46.6096	-110.823	-12.2484	-65.0722	-101.123	14.4024	-80.3641	-102.282	-41.7943	-35.8821	-90.8969	-34.5878	-56.4792	-78.7916	-25.4755	-79.153	-88.0737	-46.9295	-6.79473	-76.3261	-51.0778	-26.4115	-62.1683	-58.7013	-38.6219	-119.358	-56.8156	15.8683	-129.632	-57.6332	48.0262	-156.354	-50.9927	18.6734	
27	0.225	-174.137	-24.4062	20.8584	-186.797	-22.7656	-6.38495	-190.066	-26.2893	-39.1857	-196.909	-23.3616	-58.5094	-137.288	-27.7879	-47.2666	-131.161	-4.32339	-67.8756	-119.005	16.1099	-75.5986	-116.229	-30.4941	-49.0879	-104.819	-11.6176	-65.8544	-98.9055	19.1291	-83.3018	-98.076	-41.9852	-33.2286	-87.0933	-33.4154	-56.8548	-76.0451	-26.3069	-75.2577	-85.4471	-47.0653	-6.26894	-76.5995	-48.9305	-22.8529	-60.0621	-55.5852	-40.1761	-122.925	-55.0016	15.9347	-128.394	-55.2162	46.6503	-152.826	-51.3906	16.2436	
28	0.233333	-177.035	-23.0199	16.4039	-182.646	-20.4873	-6.54225	-187.889	-21.649	-37.378	-193.058	-19.3304	-57.2133	-136.894	-23.5491	-51.6765	-128.821	-3.88278	-66.9888	-117.233	22.7547	-79.2384	-117.954	-29.9808	-47.8082	-106.755	-7.64251	-69.1115	-97.0401	17.1505	-80.565	-98.6135	-38.1018	-37.6945	-89.3948	-31.8468	-59.5697	-77.8832	-23.7744	-78.3661	-88.3764	-44.0785	-10.2393	-72.1238	-47.9354	-26.6524	-58.1631	-54.6681	-42.4944	-118.136	-55.4928	12.3568	-130.853	-54.053	44.8995	-154.258	-50.5917	16.8754	
29	0.241667	-175.944	-18.8788	18.5728	-180.432	-18.9265	-9.7188	-191.874	-18.7254	-37.986	-195.474	-15.53	-58.463	-135.87	-22.9151	-51.0485	-129.934	-0.974144	-69.5647	-121.824	25.4554	-81.2743	-112.46	-27.4052	-50.2761	-105.403	-5.92091	-68.7445	-96.9591	24.1087	-85.0341	-98.9574	-35.7173	-38.1124	-88.0651	-28.7038	-58.8879	-73.7961	-21.1393	-78.2028	-88.4079	-40.4039	-13.1794	-72.0737	-45.912	-29.3766	-58.9576	-51.354	-45.6521	-123.26	-51.2628	13.3289	-129.932	-50.2496	40.3472	-155.235	-47.4955	15.3812	
30	0.25	-170.571	-20.2063	15.5246	-182.212	-19.4694	-12.212	-185.164	-17.1776	-37.1043	-190.901	-16.2709	-61.1016	-137.107	-19.5022	-56.1832	-127.241	-2.52388	-68.5884	-116.539	25.0006	-81.7056	-112.139	-27.6904	-48.0779	-102.626	-5.67843	-68.6023	-94.4294	21.0734	-82.1953	-96.3395	-35.9605	-39.8097	-83.6325	-27.9644	-59.192	-76.3736	-18.1498	-81.8179	-84.1561	-40.7738	-14.0067	-70.8341	-43.4658	-27.0776	-55.3619	-52.448	-46.6323	-116.319	-53.8882	11.5204	-126.721	-50.9343	41.6841	-151.49	-48.1836	14.3744	
31	0.258333	-172.52	-20.8825	17.3188	-183.797	-19.5804	-11.5086	-185.682	-19.9731	-36.7171	-194.609	-18.1408	-58.9041	-133.994	-21.9356	-55.2173	-129.845	-2.63811	-70.4915	-120.134	21.8897	-82.6384	-112.785	-26.9896	-52.6849	-104.481	-6.07612	-69.8979	-96.5187	21.3357	-86.4421	-95.0462	-37.1767	-36.2684	-87.0815	-30.2596	-56.3262	-74.7647	-20.8492	-80.9109	-83.6265	-41.3219	-10.27	-68.0019	-46.5421	-27.7141	-57.0971	-51.5532	-42.393	-118.157	-54.6349	12.1552	-129.016	-50.8621	41.607	-154.964	-46.9718	11.879	
32	0.266667	-172.701	-22.0882	15.9489	-182.268	-21.2969	-9.72284	-188.706	-21.09	-38.5652	-190.395	-20.22	-59.6543	-138.466	-25.291	-52.4558	-127.575	-3.603	-70.1739	-117.166	18.9959	-81.8074	-112.161	-30.493	-48.9313	-103.358	-10.6789	-69.1003	-96.3411	18.4219	-84.8914	-97.9877	-39.6075	-37.5793	-85.9502	-33.2162	-55.6851	-74.1353	-23.4002	-78.4525	-82.1057	-43.4323	-10.9329	-71.6358	-47.6329	-29.555	-55.5113	-53.3182	-46.61	-117.205	-55.868	11.6419	-129.206	-51.8634	41.5147	-149.706	-48.0125	15.2758	
33	0.275	-175.351	-23.2591	16.6347	-182.495	-22.8381	-11.2765	-185.87	-23.3491	-42.5269	-189.093	-20.4759	-58.6408	-132.762	-25.4169	-51.1778	-123.925	-5.05087	-69.0479	-115.55	18.9718	-80.6708	-112.242	-29.3956	-51.4921	-102.772	-11.1503	-68.6131	-95.3485	15.7676	-83.6174	-96.6058	-39.1017	-39.4055	-85.3536	-32.8835	-56.1071	-71.9833	-23.2631	-80.2941	-79.9213	-45.9897	-13.5057	-69.867	-47.6169	-29.9873	-53.5329	-54.6207	-42.3942	-119.767	-56.1116	10.2691	-127.22	-54.7078	37.6131	-150.095	-51.139	13.4778	
34	0.283333	-172.124	-23.4015	17.5873	-182.157	-21.2447	-9.94669	-183.918	-21.9313	-38.018	-186.246	-21.3383	-59.9223	-134.346	-25.832	-51.134	-122.098	-2.28326	-70.0827	-114.322	15.6041	-79.7045	-111.46	-29.7271	-52.6729	-100.625	-9.31833	-69.6957	-92.682	20.0352	-84.8481	-93.8755	-40.6817	-36.9709	-85.8255	-33.1871	-59.6393	-71.0322	-23.7247	-81.0156	-81.6246	-43.4846	-9.4572	-67.8994	-48.5348	-30.121	-54.7347	-54.1303	-46.0308	-118.841	-56.2434	10.8258	-126.776	-54.599	42.0739	-148.081	-51.0763	14.0577	
35	0.291667	-173.498	-21.2825	18.3363	-179.32	-22.6103	-12.3688	-181.405	-22.0801	-37.9012	-184.971	-20.2095	-60.6687	-134.742	-24.8706	-53.3979	-126.333	-0.835498	-71.9785	-116.519	16.9509	-80.2302	-107.657	-29.4656	-51.6869	-102.603	-8.26409	-70.1295	-94.8195	18.8462	-85.9309	-92.8586	-39.5265	-37.3004	-83.8578	-32.2698	-60.1066	-73.2371	-23.3267	-79.5086	-79.4013	-45.7391	-14.436	-67.2225	-48.1815	-31.1752	-53.199	-52.3021	-42.9007	-115.327	-57.1428	9.85303	-124.257	-55.6996	40.6539	-148.595	-48.5118	15.5588	
36	0.3	-174.326	-21.036	16.9381	-178.718	-21.2517	-12.4357	-182.719	-20.2553	-38.4362	-192.037	-18.3016	-61.2609	-131.644	-23.9237	-52.6657	-124.639	-5.23532	-68.8502	-114.109	17.2837	-80.3302	-111.31	-29.7911	-51.1243	-105.54	-10.0473	-69.5682	-92.3331	16.6035	-84.1638	-94.9277	-39.06	-36.4761	-86.2253	-31.9289	-56.6913	-73.2645	-22.0355	-84.0322	-82.1143	-44.0839	-16.769	-70.2569	-46.6349	-32.2302	-52.2403	-52.9149	-46.5168	-115.055	-54.9854	12.8279	-125.338	-55.0983	38.4022	-149.026	-48.0791	14.2252	
37	0.308333	-172.703	-20.34	14.2196	-179.722	-20.4367	-14.746	-185.071	-18.1269	-39.0178	-193.827	-16.2928	-60.942	-131.399	-20.9875	-56.6652	-125.083	-1.9035	-72.6119	-118.01	20.5233	-83.8401	-111.13	-29.7504	-50.1558	-103.355	-9.10117	-70.3206	-92.4476	16.7104	-85.217	-94.5781	-38.6097	-37.6611	-86.9197	-30.4558	-62.8645	-69.9705	-21.8015	-84.4993	-83.3937	-42.4824	-12.2032	-69.0016	-45.1744	-30.0918	-58.863	-51.1596	-46.4492	-121.214	-53.0273	11.5501	-123.908	-54.2821	39.6148	-153.382	-47.5477	10.0686	
38	0.316667	-172.366	-21.2479	12.8854	-184.542	-18.8029	-15.3397	-189.408	-19.0945	-43.4831	-190.778	-15.507	-62.4499	-136.368	-26.1912	-56.9155	-129.922	-4.06686	-77.5754	-116.756	16.0551	-88.1425	-116.868	-31.7547	-55.2149	-104.204	-11.8659	-74.6947	-91.6291	15.4897	-91.8077	-98.9031	-39.7284	-43.3963	-87.5004	-33.0622	-63.8285	-73.8847	-22.9472	-84.6667	-84.7179	-43.697	-18.9919	-69.1654	-46.4227	-32.8002	-52.6003	-51.3461	-52.5467	-118.957	-53.3396	9.59746	-129.959	-53.377	34.8033	-155.675	-48.9453	8.84207	
39	0.325	-171.879	-21.2375	11.0688	-180.419	-18.2831	-14.7658	-187.842	-18.5423	-47.5594	-192.03	-16.3963	-71.1162	-133.597	-26.8366	-62.5754	-128.34	-11.8218	-79.7088	-116.662	12.6912	-94.3598	-110.548	-33.8748	-58.3787	-101.752	-14.6513	-78.7403	-91.0211	7.95439	-93.3405	-99.2796	-40.5322	-44.244	-84.9249	-31.9162	-65.6845	-69.2607	-19.0107	-86.7114	-82.0997	-44.1883	-22.0085	-67.8313	-44.3051	-37.6828	-51.9769	-42.6336	-56.846	-122.056	-55.546	6.45478	-127.182	-53.0056	34.4039	-156.463	-47.5624	8.97841	
40	0.333333	-175.939	-22.379	6.83964	-180.591	-20.8387	-19.6721	-186.82	-19.7562	-48.7964	-190.692	-15.8961	-70.8932	-131.064	-31.5881	-63.7852	-125.629	-14.1084	-82.8241	-113.031	5.35323	-95.4146	-109.97	-36.6765	-58.6089	-100.793	-19.2705	-78.852	-92.9558	8.84054	-96.7784	-94.214	-42.5667	-43.7365	-83.1937	-33.7274	-65.394	-70.0407	-14.9345	-86.8266	-83.5509	-44.6225	-21.3616	-65.4427	-42.4194	-37.0176	-52.7568	-39.6561	-57.4349	-115.672	-58.2194	4.21998	-127.311	-55.5564	33.7336	-152.382	-51.6007	8.09782	
41	0.341667	-174.367	-26.7404	8.81491	-178.628	-22.3983	-15.36	-185.054	-22.0102	-50.309	-184.576	-19.6572	-70.8903	-133.004	-35.1603	-60.8247	-125.099	-19.6477	-80.5508	-111.648	0.910207	-93.4256	-107.531	-40.1326	-58.4248	-99.1422	-22.0477	-78.6746	-85.642	5.19858	-92.812	-91.5062	-47.4713	-41.5205	-82.6121	-36.8872	-64.614	-69.8893	-18.442	-83.8835	-77.0844	-49.0208	-19.7663	-63.1226	-45.2805	-37.9026	-46.1117	-38.3207	-57.2155	-116.686	-61.2124	5.86091	-128.059	-58.2858	33.3539	-153.159	-53.4798	9.41452	
